<svg width="33" height="33" viewBox="0 0 33 33" fill="none" xmlns="http://www.w3.org/2000/svg">
<g clip-path="url(#clip0_5681_8)">
<circle opacity="0.2" cx="16.5" cy="16.5" r="16.5" fill="#007A3B"/>
<path d="M10.9267 6C10.4157 6 9.92563 6.20935 9.56431 6.58198C9.20299 6.95462 9 7.46002 9 7.98701C9 8.514 9.20299 9.01941 9.56431 9.39204C9.92563 9.76468 10.4157 9.97403 10.9267 9.97403C11.4377 9.97403 11.9277 9.76468 12.289 9.39204C12.6503 9.01941 12.8533 8.514 12.8533 7.98701C12.8533 7.46002 12.6503 6.95462 12.289 6.58198C11.9277 6.20935 11.4377 6 10.9267 6ZM9.11333 11.6104C9.08328 11.6104 9.05445 11.6227 9.03319 11.6446C9.01194 11.6665 9 11.6963 9 11.7273V23.8831C9 23.9476 9.05077 24 9.11333 24H12.74C12.7701 24 12.7989 23.9877 12.8201 23.9658C12.8414 23.9438 12.8533 23.9141 12.8533 23.8831V11.7273C12.8533 11.6963 12.8414 11.6665 12.8201 11.6446C12.7989 11.6227 12.7701 11.6104 12.74 11.6104H9.11333ZM15.0067 11.6104C14.9766 11.6104 14.9478 11.6227 14.9265 11.6446C14.9053 11.6665 14.8933 11.6963 14.8933 11.7273V23.8831C14.8933 23.9476 14.9441 24 15.0067 24H18.6333C18.6634 24 18.6922 23.9877 18.7135 23.9658C18.7347 23.9438 18.7467 23.9141 18.7467 23.8831V17.3377C18.7467 16.8727 18.9258 16.4267 19.2446 16.0979C19.5634 15.7691 19.9958 15.5844 20.4467 15.5844C20.8975 15.5844 21.3299 15.7691 21.6487 16.0979C21.9676 16.4267 22.1467 16.8727 22.1467 17.3377V23.8831C22.1467 23.9476 22.1974 24 22.26 24H25.8867C25.9167 24 25.9456 23.9877 25.9668 23.9658C25.9881 23.9438 26 23.9141 26 23.8831V15.8229C26 13.5535 24.0869 11.7787 21.8973 11.9835C21.2199 12.0476 20.5564 12.2205 19.9308 12.4959L18.7467 13.0195V11.7273C18.7467 11.6963 18.7347 11.6665 18.7135 11.6446C18.6922 11.6227 18.6634 11.6104 18.6333 11.6104H15.0067Z" fill="#007A3B"/>
</g>
<defs>
<clipPath id="clip0_5681_8">
<rect width="33" height="33" fill="white"/>
</clipPath>
</defs>
</svg>
