<svg width="150" height="150" viewBox="0 0 150 150" fill="none" xmlns="http://www.w3.org/2000/svg">
<path d="M123.842 30.82C114.78 26.69 105.157 23.68 95.1117 22C93.8472 24.17 92.4423 27.11 91.4588 29.42C80.7748 27.88 70.1679 27.88 59.6312 29.42C58.6477 27.11 57.1725 24.17 55.9783 22C45.8633 23.68 36.2398 26.69 27.2415 30.82C9.0483 57.5599 4.13118 83.6698 6.58974 109.43C18.6717 118.18 30.3324 123.5 41.7893 127C44.599 123.22 47.1279 119.16 49.3054 114.89C45.161 113.35 41.2273 111.46 37.4341 109.22C38.4175 108.52 39.401 107.75 40.3142 106.98C63.2138 117.41 88.0171 117.41 110.636 106.98C111.619 107.75 112.532 108.52 113.516 109.22C109.722 111.46 105.789 113.35 101.644 114.89C103.822 119.16 106.351 123.22 109.16 127C120.61 123.5 132.341 118.18 144.36 109.43C147.38 79.61 139.576 53.7101 123.842 30.82ZM52.4664 93.5398C45.5824 93.5398 39.9628 87.3099 39.9628 79.68C39.9628 72.0501 45.4419 65.8198 52.4664 65.8198C59.4204 65.8198 65.11 72.0501 64.9696 79.68C64.9696 87.3099 59.4204 93.5398 52.4664 93.5398ZM98.6241 93.5398C91.7398 93.5398 86.1132 87.3099 86.1132 79.68C86.1132 72.0501 91.5993 65.8198 98.6241 65.8198C105.578 65.8198 111.268 72.0501 111.127 79.68C111.127 87.3099 105.648 93.5398 98.6241 93.5398Z" fill="#4F1FF6"/>
</svg>
